 <svg version="1.0" xmlns="http://www.w3.org/2000/svg" width="700.000000pt" height="321.000000pt" viewBox="0 0 700.000000 321.000000" preserveAspectRatio="xMidYMid meet">
<metadata>
Created by potrace 1.12, written by Peter Selinger 2001-2015
</metadata>
<g transform="translate(0.000000,321.000000) scale(0.100000,-0.100000)" fill="#000000" stroke="none">
<path d="M135 3194 c-81 -42 -115 -105 -114 -214 0 -84 13 -147 60 -291 27
-81 31 -103 21 -117 -74 -105 -108 -214 -99 -322 8 -95 26 -149 64 -194 18
-22 33 -47 33 -56 0 -29 36 -65 98 -98 33 -18 63 -39 66 -48 9 -23 89 -54 138
-53 24 0 70 -3 103 -6 127 -14 357 90 454 205 53 64 61 69 36 21 -25 -49 -123
-129 -210 -172 -94 -47 -100 -52 -140 -125 -29 -52 -29 -84 1 -84 30 0 155 73
192 112 20 22 58 51 84 64 26 13 61 42 79 64 18 22 38 40 44 40 6 0 24 14 40
30 l29 31 -39 73 c-57 106 -44 121 80 91 33 -8 63 -15 68 -15 4 0 7 33 7 74 0
108 7 136 36 136 18 0 28 -9 39 -36 19 -47 39 -35 31 18 -6 36 -5 40 11 33 10
-4 44 -14 76 -21 64 -14 71 -18 164 -108 73 -70 93 -114 69 -151 -11 -17 -26
-25 -45 -25 -32 0 -66 32 -58 55 8 20 44 19 56 -2 12 -23 25 -11 16 16 -15 50
-95 28 -95 -26 0 -62 99 -88 139 -37 49 62 5 145 -131 251 -47 35 -58 50 -58
73 0 15 -13 53 -30 84 l-29 56 42 27 c155 99 404 196 486 191 36 -2 46 0 46
12 0 43 -259 -34 -454 -136 -68 -35 -126 -62 -129 -60 -6 6 63 88 120 142 54
53 203 162 243 180 17 7 43 15 58 19 28 6 36 34 12 42 -14 4 -120 -64 -220
-143 -101 -79 -332 -315 -360 -368 -15 -30 -29 -42 -47 -44 -23 -3 -35 9 -97
100 -248 364 -540 623 -794 703 -90 29 -149 32 -192 9z m160 -36 c79 -20 233
-93 221 -105 -2 -2 -46 11 -98 31 -51 19 -124 40 -161 46 -69 12 -90 26 -66
41 14 8 25 7 104 -13z m41 -72 c139 -64 119 -100 -31 -55 -39 11 -104 24 -145
27 -62 6 -75 10 -78 26 -6 30 18 37 109 33 66 -3 100 -11 145 -31z m-71 -66
c78 -22 133 -64 101 -76 -25 -10 -287 14 -303 28 -16 13 -17 40 -1 56 18 18
125 14 203 -8z m382 -63 c227 -190 422 -415 514 -593 46 -89 49 -125 13 -161
-28 -28 -47 -24 -21 5 39 43 6 135 -101 277 -63 85 -248 285 -263 285 -5 0 -8
-10 -6 -22 2 -19 -2 -22 -21 -20 -20 3 -23 0 -17 -17 5 -18 2 -21 -21 -21 -26
0 -27 -1 -9 -20 27 -30 13 -53 -27 -45 -33 7 -33 7 -14 -14 17 -18 17 -21 3
-27 -25 -9 -52 0 -52 17 0 9 -6 23 -14 32 -16 20 -7 37 20 37 20 0 26 24 8 35
-17 11 -4 30 22 30 20 0 24 4 21 28 -3 26 -1 27 37 27 47 0 50 6 20 44 -28 36
-157 146 -170 146 -8 0 -8 -5 1 -15 16 -19 3 -37 -21 -30 -24 8 -25 -4 -1 -21
13 -10 14 -15 5 -25 -25 -25 -152 43 -140 75 5 12 14 14 37 10 25 -5 29 -4 24
9 -11 29 6 40 33 22 23 -16 25 -15 30 4 3 12 9 21 14 21 4 0 48 -33 96 -73z
m-414 -32 c55 -6 117 -36 117 -56 0 -13 -254 -2 -282 12 -21 11 -24 45 -5 53
12 5 57 2 170 -9z m244 -40 c40 -16 68 -48 58 -65 -9 -15 -60 -12 -105 6 -41
17 -66 46 -55 64 9 15 59 12 102 -5z m181 -7 c19 -19 15 -48 -6 -48 -26 0 -34
-11 -21 -26 17 -21 3 -44 -26 -44 -22 0 -24 -3 -15 -19 15 -30 12 -40 -15 -53
-23 -11 -24 -12 -9 -29 29 -32 1 -63 -36 -39 -11 7 -12 12 -3 21 8 8 9 18 1
35 -9 19 -8 28 7 44 12 13 15 27 11 45 -5 21 -3 28 13 32 14 3 19 13 18 31 -2
23 2 26 21 24 17 -3 25 2 29 17 6 24 14 26 31 9z m-412 -39 c34 -6 71 -17 81
-25 17 -13 17 -15 -1 -29 -24 -18 -160 -21 -218 -4 -30 8 -38 15 -38 33 0 12
3 26 7 29 10 11 99 8 169 -4z m222 -49 c19 -12 32 -28 32 -40 0 -17 -7 -20
-43 -20 -23 0 -53 7 -65 16 -21 15 -29 44 -15 57 13 13 58 7 91 -13z m-139
-65 c15 -15 15 -17 -2 -29 -22 -17 -141 -28 -187 -18 -35 8 -48 28 -36 59 9
23 201 13 225 -12z m113 -19 c49 -21 66 -43 47 -61 -20 -20 -108 -7 -123 18
-9 15 -7 22 13 38 28 23 21 22 63 5z m408 -55 c10 -21 -2 -71 -18 -71 -4 0
-16 -13 -25 -29 -17 -30 -18 -30 -47 -13 -35 20 -35 21 -15 68 9 22 26 40 47
49 43 19 45 18 58 -4z m-565 1 c-14 -13 -145 -46 -152 -38 -9 9 16 34 40 39
41 8 121 7 112 -1z m196 -53 c117 -24 190 -49 299 -104 166 -83 301 -190 316
-249 9 -37 1 -61 -21 -61 -14 0 -24 13 -36 45 -9 25 -33 64 -53 87 -52 60
-242 173 -368 219 -47 17 -48 12 -3 -15 37 -22 47 -51 17 -51 -10 0 -63 16
-118 35 -55 19 -144 42 -199 51 -124 20 -131 22 -119 34 8 8 97 23 165 29 9 0
63 -9 120 -20z m437 -1 c9 -9 3 -22 -30 -55 -39 -40 -68 -55 -68 -35 0 5 12
19 26 33 14 13 30 34 35 47 10 25 19 28 37 10z m-663 -49 c99 -18 162 -61 125
-84 -13 -8 -254 15 -272 26 -21 14 4 42 48 56 21 6 39 12 40 12 0 1 27 -4 59
-10z m716 -19 c24 -13 55 -70 37 -70 -6 0 -21 -9 -33 -20 -21 -20 -21 -20 -57
5 -40 27 -42 54 -5 80 25 18 32 18 58 5z m-458 -56 c32 -17 44 -41 29 -56 -8
-8 -26 -8 -64 1 -72 16 -81 22 -72 55 6 26 9 27 42 21 20 -4 49 -13 65 -21z
m878 -47 c-5 -14 -17 -22 -32 -22 -30 0 -36 27 -13 62 l17 27 18 -23 c13 -15
16 -28 10 -44z m-640 27 c65 -29 78 -54 29 -54 -31 0 -104 31 -115 50 -8 12 2
30 17 30 6 0 37 -12 69 -26z m-511 -22 c44 -21 51 -48 15 -62 -32 -12 -175
-13 -193 -1 -25 15 -9 55 28 74 40 20 92 16 150 -11z m168 -18 c26 -11 33 -19
30 -36 -3 -21 -9 -23 -75 -26 -71 -3 -84 3 -62 25 8 8 8 17 0 31 -6 11 -11 24
-11 27 0 9 79 -5 118 -21z m282 -12 c39 -19 56 -33 58 -50 3 -20 0 -22 -25
-16 -51 11 -153 63 -153 77 0 35 32 32 120 -11z m388 16 c17 -17 15 -43 -4
-59 -17 -14 -40 -5 -58 23 -20 33 34 64 62 36z m-171 -53 c66 -39 74 -105 12
-105 -30 0 -31 -1 -16 -18 23 -25 21 -65 -3 -87 -19 -17 -19 -20 -5 -42 9 -13
13 -33 10 -43 -4 -14 -2 -20 9 -20 22 0 30 -20 14 -36 -8 -8 -32 -17 -53 -21
-37 -6 -38 -5 -32 19 5 20 2 27 -18 36 -27 13 -32 31 -13 50 10 10 10 15 -1
21 -8 5 -11 16 -8 25 4 9 1 27 -5 41 -16 36 12 75 55 75 l32 0 -32 20 c-50 30
-65 67 -37 94 21 22 40 20 91 -9z m-310 -10 c53 -35 4 -50 -84 -26 -33 9 -43
17 -43 33 0 19 4 20 51 15 28 -4 62 -14 76 -22z m-367 -35 c23 -12 26 -42 6
-59 -8 -6 -38 -16 -67 -22 -108 -22 -182 34 -107 81 27 18 43 20 91 16 32 -3
67 -10 77 -16z m904 -2 c17 -24 22 -93 7 -102 -10 -7 -21 16 -21 43 0 10 -11
28 -25 41 -31 30 -32 40 -1 40 14 0 32 -10 40 -22z m-742 -4 c23 -7 30 -31 12
-49 -10 -10 -35 -15 -75 -15 -59 0 -69 6 -47 28 9 9 9 15 0 24 -23 23 -12 30
41 23 28 -3 59 -9 69 -11z m186 -27 c23 -24 5 -37 -51 -37 -64 0 -105 23 -85
47 16 19 114 12 136 -10z m180 7 l37 -15 -23 -17 c-22 -17 -29 -41 -21 -72 7
-25 -109 -20 -127 5 -22 30 -17 61 17 89 35 30 64 32 117 10z m258 -69 c21
-33 12 -60 -16 -45 -23 13 -43 47 -35 60 11 18 34 11 51 -15z m-622 -5 c40
-15 33 -45 -14 -64 -22 -9 -54 -16 -70 -16 -27 0 -30 3 -30 29 0 17 -4 33 -10
36 -5 3 -10 10 -10 16 0 12 102 12 134 -1z m190 -10 c15 -15 -1 -37 -32 -43
-63 -13 -135 28 -94 53 19 11 112 4 126 -10z m-356 -9 c8 -5 12 -21 10 -37 -6
-56 -134 -88 -178 -44 -25 25 -26 66 -2 79 21 13 152 14 170 2z m770 -48 c5
-17 -26 -29 -40 -15 -6 6 -7 15 -3 22 9 14 37 9 43 -7z m-396 -22 c-1 -7 2
-19 9 -27 28 -34 -35 -48 -66 -14 -17 19 -17 21 0 40 20 22 62 23 57 1z m158
0 c0 -20 -10 -26 -72 -37 -30 -5 -39 -3 -44 10 -13 34 3 46 61 46 48 0 55 -3
55 -19z m-252 -25 c35 -35 -37 -99 -123 -108 -28 -3 -29 -2 -27 34 3 30 -1 40
-23 54 -14 9 -22 20 -18 25 24 23 167 20 191 -5z m492 -2 c0 -15 -22 -44 -34
-44 -25 0 -27 30 -3 40 27 11 37 12 37 4z m-696 -30 c18 -7 31 -46 23 -68 -11
-28 -58 -50 -110 -50 -42 0 -53 4 -73 28 -13 15 -24 35 -24 45 0 18 23 44 50
54 17 7 109 1 134 -9z m462 -9 c-3 -9 1 -18 9 -21 23 -9 18 -20 -14 -34 -61
-25 -104 8 -65 51 21 24 79 27 70 4z m-122 -54 c16 -31 13 -41 -14 -41 -25 0
-43 26 -35 50 9 29 32 25 49 -9z m-83 -11 c10 -6 19 -16 19 -23 0 -23 -79 -87
-107 -87 -5 0 -9 12 -8 28 0 19 -7 30 -23 37 -34 15 -21 29 39 41 30 7 55 12
57 13 2 0 12 -4 23 -9z m256 -32 c13 -15 12 -18 -6 -27 -49 -27 -100 -1 -70
35 18 22 53 34 58 20 2 -6 10 -19 18 -28z m69 -17 c-26 -27 -123 -78 -131 -69
-4 3 145 97 154 98 3 0 -8 -13 -23 -29z m-180 -16 c13 -20 14 -28 4 -40 -18
-22 -37 -18 -56 10 -13 20 -14 28 -4 40 18 22 37 18 56 -10z m-285 5 c11 -6
19 -21 19 -35 0 -54 -115 -81 -152 -35 -23 28 -23 35 2 60 22 22 97 28 131 10z
m209 -46 c14 -36 1 -49 -61 -64 -103 -25 -132 15 -44 61 67 35 93 36 105 3z"></path>
<path d="M370 2590 c0 -5 5 -10 10 -10 6 0 10 5 10 10 0 6 -4 10 -10 10 -5 0
-10 -4 -10 -10z"></path>
<path d="M420 2580 c0 -5 5 -10 10 -10 6 0 10 5 10 10 0 6 -4 10 -10 10 -5 0
-10 -4 -10 -10z"></path>
<path d="M460 2573 c0 -10 65 -33 94 -33 29 0 17 17 -16 23 -18 4 -43 9 -55
13 -13 3 -23 2 -23 -3z"></path>
<path d="M1917 2453 c-5 -4 2 -14 13 -23 l22 -16 -32 -150 c-35 -165 -41 -180
-70 -189 -35 -11 -11 -25 45 -25 55 0 81 13 45 23 -14 4 -20 14 -20 34 0 46
53 284 61 276 4 -4 37 -79 73 -167 36 -87 67 -161 70 -163 19 -19 35 18 60
138 15 74 32 156 38 182 8 38 15 50 35 58 36 14 22 22 -42 24 -40 1 -55 -2
-55 -12 0 -7 6 -13 14 -13 8 0 18 -4 21 -10 8 -13 -46 -283 -55 -273 -4 4 -33
74 -66 155 -59 147 -59 148 -91 148 -17 0 -38 2 -45 5 -8 3 -17 2 -21 -2z"></path>
<path d="M2334 2448 c-3 -4 6 -12 19 -17 l25 -10 -34 -163 c-19 -89 -34 -164
-34 -165 0 -2 -12 -8 -27 -14 -53 -20 -8 -30 122 -27 l129 3 12 48 c6 26 9 47
5 47 -3 0 -19 -16 -34 -35 -26 -33 -31 -35 -89 -35 l-61 0 6 59 c4 32 11 70
17 85 9 25 14 27 57 24 39 -2 50 -7 60 -28 13 -27 14 -25 32 50 5 24 8 46 6
49 -3 2 -16 -8 -29 -22 -19 -21 -35 -27 -65 -27 -22 0 -42 4 -45 9 -8 12 20
131 32 143 5 5 33 8 63 6 53 -3 54 -4 57 -35 3 -31 15 -43 25 -25 3 4 7 25 8
47 l4 39 -128 1 c-71 0 -131 -3 -133 -7z"></path>
<path d="M2644 2448 c-3 -4 3 -11 13 -17 15 -8 19 -35 29 -190 6 -100 14 -184
18 -188 20 -20 41 17 145 251 12 27 24 47 27 44 3 -4 11 -71 17 -150 11 -131
14 -143 32 -143 15 0 34 35 97 175 53 119 86 182 105 197 16 13 26 23 23 24
-21 4 -107 5 -114 1 -5 -3 1 -12 14 -22 l22 -16 -58 -137 c-32 -75 -60 -134
-63 -132 -2 3 -10 68 -16 145 -12 146 -24 181 -50 147 -7 -10 -40 -79 -72
-153 -32 -74 -61 -134 -64 -134 -7 0 -19 131 -19 215 0 56 2 63 22 68 12 4 19
10 14 14 -9 10 -116 11 -122 1z"></path>
<path d="M3330 2443 c0 -7 9 -13 20 -13 11 0 20 -4 20 -10 0 -11 -59 -297 -66
-322 -3 -9 -14 -18 -25 -20 -11 -2 -20 -7 -19 -13 0 -6 52 -11 130 -13 l130
-3 11 28 c6 15 13 42 15 58 4 27 4 28 -8 11 -38 -57 -56 -67 -116 -64 l-57 3
2 41 c1 23 7 60 13 83 l11 42 52 -3 c45 -3 52 -6 55 -25 2 -13 7 -23 11 -23 9
0 34 110 27 117 -2 2 -15 -7 -29 -21 -20 -19 -36 -26 -67 -26 -37 0 -40 2 -39
28 0 15 6 50 12 77 l12 50 53 3 c60 3 82 -8 82 -44 0 -13 4 -24 9 -24 10 0 24
80 15 89 -3 3 -62 6 -130 6 -93 0 -124 -3 -124 -12z"></path>
<path d="M3667 2453 c-5 -4 2 -15 14 -23 l21 -17 -33 -158 c-30 -146 -35 -159
-61 -175 -37 -22 -26 -30 38 -30 54 0 80 14 44 23 -13 3 -20 14 -20 29 0 40
52 288 60 283 4 -3 38 -79 75 -170 61 -149 83 -183 99 -157 2 4 19 75 36 157
39 191 46 212 72 219 35 9 12 19 -47 21 -37 1 -55 -2 -55 -11 0 -6 9 -14 20
-17 11 -3 20 -12 20 -20 0 -23 -48 -248 -54 -255 -6 -5 -29 45 -92 200 -38 95
-40 98 -71 98 -17 0 -38 2 -45 5 -8 3 -17 2 -21 -2z"></path>
<path d="M4141 2438 c-125 -62 -160 -296 -55 -364 37 -25 102 -34 157 -22 53
11 62 22 72 91 5 31 14 53 26 60 35 22 20 32 -46 32 -45 0 -65 -4 -65 -12 0
-7 10 -13 21 -13 20 0 21 -3 15 -52 -11 -77 -19 -88 -72 -88 -84 0 -126 79
-106 197 18 110 76 173 159 173 33 0 46 -5 62 -26 12 -15 21 -38 21 -52 0 -38
18 -15 25 33 6 37 5 42 -20 53 -43 20 -144 15 -194 -10z"></path>
<path d="M4444 2451 c-3 -3 5 -13 17 -22 l22 -16 -34 -162 c-29 -146 -35 -164
-56 -172 -13 -5 -23 -13 -23 -19 0 -7 44 -10 131 -8 l132 3 13 45 c14 47 9 67
-10 36 -27 -46 -45 -56 -100 -56 -30 0 -57 4 -60 9 -5 8 45 275 60 323 3 9 14
18 25 20 11 2 21 8 22 13 2 10 -129 15 -139 6z"></path>
<path d="M4913 2448 c-6 -7 -50 -91 -99 -187 -60 -117 -96 -177 -111 -184 -38
-17 -26 -27 32 -27 57 0 66 5 39 24 -14 11 -13 18 13 71 l28 60 49 3 c27 2 53
-1 58 -6 5 -5 12 -34 15 -64 5 -51 4 -56 -16 -63 -36 -11 -13 -25 43 -25 62 0
72 6 46 29 -15 13 -22 45 -36 176 -21 197 -32 231 -61 193z m8 -161 l3 -52
-33 -3 c-63 -6 -65 1 -24 83 34 69 38 73 45 50 3 -14 8 -50 9 -78z"></path>
<path d="M5130 2445 c0 -8 6 -15 14 -15 8 0 17 -4 20 -9 3 -5 -10 -80 -29
-167 -33 -150 -47 -184 -78 -184 -4 0 -5 -4 -2 -10 3 -5 30 -10 60 -10 30 0
57 5 60 10 3 6 0 10 -8 10 -35 0 -36 24 -9 164 15 77 32 141 37 143 6 1 40
-70 76 -160 87 -216 92 -216 134 -7 43 212 42 209 71 220 39 15 21 26 -40 25
-64 -1 -80 -10 -42 -25 21 -7 25 -15 22 -32 -3 -13 -15 -74 -27 -135 -12 -62
-25 -113 -29 -113 -4 0 -33 64 -64 143 -32 78 -61 145 -64 148 -4 4 -28 9 -54
13 -39 4 -48 3 -48 -9z"></path>
<path d="M5534 2448 c-3 -4 6 -12 19 -17 l25 -10 -34 -163 c-19 -89 -34 -164
-34 -165 0 -2 -12 -8 -27 -14 -19 -7 -23 -13 -15 -21 7 -7 48 -9 119 -6 85 4
117 9 151 27 139 71 162 304 34 358 -39 17 -229 25 -238 11z m228 -47 c32 -28
33 -33 33 -103 0 -86 -28 -155 -78 -190 -32 -23 -139 -38 -150 -21 -6 10 55
312 67 331 4 7 27 12 51 12 35 0 52 -6 77 -29z"></path>
<path d="M1255 2298 c-3 -13 -5 -59 -3 -103 3 -74 5 -80 26 -83 19 -3 22 1 22
27 0 41 9 39 44 -11 21 -31 31 -61 38 -117 14 -109 31 -117 22 -11 -6 74 -12
94 -47 155 -23 39 -48 90 -58 115 -19 51 -36 62 -44 28z"></path>
<path d="M1385 2284 c-49 -25 -61 -40 -46 -58 12 -14 17 -12 49 14 19 16 40
26 45 23 5 -3 7 -26 4 -52 -3 -25 -9 -72 -13 -104 -8 -64 10 -159 33 -178 17
-14 16 -10 -4 65 -16 61 -16 67 5 165 30 137 29 141 -10 141 -18 0 -46 -7 -63
-16z"></path>
<path d="M1060 2126 c0 -8 25 -64 55 -124 52 -102 58 -110 95 -121 60 -18 59
-31 -4 -31 -52 0 -56 -2 -56 -24 0 -26 16 -36 61 -36 40 0 69 -16 69 -39 0
-33 -199 -1017 -211 -1044 -12 -27 -47 -42 -114 -49 -25 -2 -31 -8 -33 -31
l-4 -29 314 4 c288 4 318 6 380 26 173 57 258 171 258 347 0 134 -52 221 -162
274 l-62 29 44 12 c65 17 130 53 167 92 107 111 104 308 -5 398 -67 55 -107
63 -334 68 -115 2 -208 7 -208 12 0 4 -28 18 -61 30 -61 23 -62 25 -94 94 -45
96 -50 116 -31 116 9 0 39 -9 68 -20 53 -20 76 -15 65 13 -3 8 -38 21 -89 30
-101 21 -108 21 -108 3z m617 -366 c21 -11 50 -37 63 -57 22 -32 25 -48 25
-117 0 -71 -4 -88 -30 -135 -55 -99 -143 -141 -297 -141 l-87 0 6 33 c3 17 25
120 47 227 37 177 43 196 66 208 37 20 159 9 207 -18z m-143 -534 c62 -19 111
-58 138 -109 18 -34 22 -59 23 -132 0 -82 -3 -96 -33 -157 -55 -111 -134 -158
-269 -158 -83 0 -138 18 -148 49 -5 16 70 429 91 504 5 14 17 17 78 17 40 0
94 -6 120 -14z"></path>
<path d="M1140 2062 c0 -11 7 -25 16 -32 12 -11 18 -10 32 3 18 19 11 31 -25
42 -18 5 -23 2 -23 -13z"></path>
<path d="M4961 1920 c-63 -11 -118 -23 -124 -29 -19 -19 1 -38 48 -43 88 -10
91 34 -44 -625 -67 -324 -121 -596 -121 -606 0 -12 8 -17 25 -17 20 0 30 9 47
45 12 25 25 45 28 45 3 0 16 -13 28 -30 50 -67 171 -96 274 -66 127 37 234
139 314 302 66 135 96 263 92 394 -4 117 -18 154 -69 191 -46 32 -111 36 -184
9 -49 -19 -76 -39 -145 -109 -48 -48 -102 -116 -124 -154 -21 -37 -40 -66 -42
-65 -1 2 36 172 82 378 46 206 84 381 84 388 0 16 -28 14 -169 -8z m382 -528
c29 -32 40 -112 27 -199 -47 -324 -176 -543 -319 -543 -107 0 -153 76 -131
216 41 258 236 544 370 544 23 0 43 -7 53 -18z"></path>
<path d="M2174 1867 c-22 -19 -28 -34 -32 -80 -4 -53 -2 -58 27 -88 28 -27 37
-31 69 -26 84 14 123 136 62 197 -28 28 -91 27 -126 -3z"></path>
<path d="M3218 1825 c-5 -22 -1 -25 41 -30 70 -10 81 -15 86 -38 9 -37 -202
-1048 -222 -1069 -10 -10 -43 -21 -73 -25 -50 -7 -55 -11 -58 -36 l-3 -27 410
0 410 0 10 38 c5 20 22 87 38 147 l28 110 5 -100 c6 -113 23 -154 80 -192 106
-72 275 34 414 261 33 53 60 96 62 96 1 0 -11 -51 -27 -112 -37 -145 -38 -210
-4 -243 72 -73 213 9 297 171 28 55 31 66 18 74 -24 15 -26 14 -68 -57 -22
-38 -51 -79 -65 -91 -27 -26 -60 -26 -65 -1 -2 9 38 188 88 399 49 210 87 386
84 391 -7 12 -118 11 -130 -1 -7 -7 -22 -6 -47 5 -98 41 -269 -7 -383 -108
-92 -81 -194 -259 -229 -399 -16 -63 -19 -68 -45 -68 -24 0 -31 -7 -49 -52
-31 -77 -85 -144 -133 -170 -36 -18 -63 -23 -161 -26 -179 -6 -217 7 -217 73
0 64 198 1007 215 1024 8 9 44 21 78 26 53 9 62 13 65 33 l3 22 -224 0 -225 0
-4 -25z m1312 -403 l22 -18 -21 -79 c-63 -229 -174 -444 -291 -566 -65 -68
-100 -86 -143 -75 -95 23 -40 358 93 569 45 73 124 151 173 172 47 21 140 19
167 -3z"></path>
<path d="M2104 1486 c-146 -27 -154 -30 -154 -56 0 -17 6 -20 39 -20 51 0 91
-15 91 -35 0 -9 -34 -158 -75 -331 -90 -377 -93 -419 -34 -449 88 -46 201 27
281 181 28 55 31 66 18 74 -24 15 -26 13 -59 -44 -59 -105 -118 -153 -135
-110 -6 16 29 174 133 599 27 110 47 203 45 207 -6 10 -6 10 -150 -16z"></path>
<path d="M2650 1495 c-143 -41 -255 -162 -314 -344 -116 -353 1 -589 281 -568
236 18 412 252 430 572 7 117 -9 187 -56 252 -61 85 -212 124 -341 88z m189
-80 c44 -38 55 -81 48 -204 -12 -241 -116 -488 -228 -547 -37 -19 -102 -18
-140 2 -89 45 -92 249 -9 499 58 174 150 275 251 275 36 0 55 -6 78 -25z"></path>
<path d="M5791 1499 c-107 -33 -176 -131 -176 -249 1 -90 27 -142 125 -246 95
-100 119 -146 120 -224 0 -86 -36 -129 -109 -130 -40 0 -49 5 -85 43 -23 24
-50 68 -61 98 -18 48 -23 54 -51 57 -25 2 -37 -3 -59 -30 -23 -27 -26 -39 -22
-75 10 -87 94 -151 213 -161 183 -14 318 119 301 298 -7 81 -45 147 -143 250
-47 50 -92 106 -100 125 -18 44 -18 98 1 135 19 36 43 50 88 50 42 0 77 -30
111 -98 14 -27 32 -52 41 -55 36 -14 95 33 95 76 0 39 -33 88 -77 114 -50 29
-153 40 -212 22z"></path>
<path d="M6159 1421 c-21 -22 -29 -39 -29 -66 0 -51 44 -95 95 -95 51 0 95 44
95 95 0 51 -44 95 -95 95 -27 0 -44 -8 -66 -29z m121 -11 c27 -27 27 -83 -2
-110 -49 -45 -128 -11 -128 55 0 66 84 101 130 55z"></path>
<path d="M6190 1355 c0 -41 3 -55 13 -52 6 2 11 11 9 20 -4 24 19 32 25 8 3
-12 12 -21 20 -21 9 0 11 5 6 12 -4 7 -7 29 -8 48 0 32 -3 35 -32 38 l-33 3 0
-56z m48 24 c-2 -6 -8 -10 -13 -10 -5 0 -11 4 -13 10 -2 6 4 11 13 11 9 0 15
-5 13 -11z"></path>
<path d="M6174 935 c20 -15 20 -17 -8 -153 -31 -152 -31 -152 -52 -152 -8 0
-14 -4 -14 -10 0 -13 107 -13 115 0 3 6 -1 10 -9 10 -8 0 -17 3 -19 8 -3 4 8
68 23 142 23 109 33 137 52 152 23 17 22 18 -42 17 -59 0 -63 -1 -46 -14z"></path>
<path d="M6325 853 c-45 -10 -51 -15 -29 -23 l22 -8 -24 -99 c-28 -119 -28
-113 -6 -113 14 0 24 17 40 69 34 104 86 171 113 144 8 -8 5 -30 -10 -85 -28
-100 -28 -128 2 -128 26 0 67 38 67 61 0 9 -8 5 -20 -11 -30 -40 -33 -18 -8
74 16 65 20 91 12 104 -19 30 -50 25 -95 -15 -38 -35 -41 -36 -34 -13 14 46
10 52 -30 43z"></path>
<path d="M6605 838 c-56 -44 -83 -157 -49 -206 22 -31 74 -30 113 4 17 14 31
33 31 42 0 11 -9 7 -33 -16 -40 -39 -51 -40 -73 -6 -15 22 -15 32 -5 79 20 90
70 134 91 79 11 -28 33 -28 39 1 8 44 -68 59 -114 23z"></path>
<path d="M6760 656 c-18 -22 -5 -48 22 -44 17 2 23 10 23 28 0 29 -26 38 -45
16z"></path>
<path d="M1478 433 c-20 -5 -23 -14 -8 -29 6 -6 -2 -49 -21 -119 -16 -61 -28
-123 -27 -140 3 -27 6 -30 34 -29 47 2 81 30 110 90 41 85 13 139 -49 94 -16
-12 -31 -20 -33 -17 -5 4 19 106 32 142 6 15 -4 17 -38 8z m72 -173 c0 -32
-31 -100 -51 -110 -10 -6 -25 -10 -34 -10 -26 0 -10 78 23 113 31 32 62 36 62
7z"></path>
<path d="M1670 428 c-15 -6 -20 -12 -12 -15 18 -7 15 -27 -23 -163 -19 -70
-31 -128 -26 -133 10 -10 41 4 62 29 12 15 12 16 -9 10 -12 -4 -22 -6 -22 -4
0 2 18 67 39 146 23 85 34 142 27 141 -6 0 -22 -5 -36 -11z"></path>
<path d="M2780 429 c-20 -8 -22 -12 -10 -19 13 -8 10 -29 -21 -150 -19 -78
-32 -143 -28 -145 11 -7 26 17 39 62 7 23 26 58 42 78 25 30 33 34 45 23 30
-25 -9 -148 -47 -148 -21 0 -27 -15 -10 -25 34 -21 104 94 98 161 -2 32 -7 40
-26 42 -15 2 -33 -5 -48 -19 -29 -27 -30 -17 -9 61 24 90 22 97 -25 79z"></path>
<path d="M3370 428 c-15 -6 -20 -12 -12 -15 18 -7 15 -27 -23 -163 -37 -132
-35 -155 9 -126 28 18 36 39 11 30 -8 -4 -15 -5 -15 -3 0 2 17 68 39 147 23
85 34 142 27 141 -6 0 -22 -5 -36 -11z"></path>
<path d="M4863 433 c-25 -5 -29 -13 -12 -30 9 -9 -12 -109 -57 -272 -6 -21 -5
-22 13 -12 11 5 23 25 27 42 10 53 54 119 78 119 19 0 20 -4 16 -57 -5 -55
-22 -82 -61 -96 -9 -4 -9 -7 0 -18 33 -34 115 111 99 175 -7 30 -39 35 -74 10
-27 -19 -28 -11 -7 66 17 62 18 81 8 79 -5 -1 -18 -4 -30 -6z"></path>
<path d="M5318 433 c-20 -5 -23 -14 -8 -29 6 -6 -3 -55 -27 -142 -28 -102 -34
-135 -25 -144 10 -10 19 -6 40 16 18 20 22 27 10 23 -11 -4 -18 -1 -18 6 0 10
48 198 66 260 5 17 -3 19 -38 10z"></path>
<path d="M5592 425 c-12 -9 -34 -39 -47 -66 -18 -34 -31 -49 -45 -49 -26 0
-26 -16 -1 -23 19 -5 19 -9 -11 -118 -36 -137 -44 -153 -66 -144 -44 18 -54
18 -50 -1 2 -13 13 -20 34 -22 43 -4 78 39 105 131 11 40 26 90 32 112 10 33
17 41 40 43 33 4 36 19 5 24 -28 4 -27 40 1 78 19 25 27 27 70 14 19 -6 22 -4
19 12 -4 25 -55 30 -86 9z"></path>
<path d="M1794 399 c-8 -14 11 -33 25 -25 6 4 11 14 11 22 0 16 -26 19 -36 3z"></path>
<path d="M3862 394 c4 -21 22 -23 26 -1 2 10 -3 17 -13 17 -10 0 -15 -6 -13
-16z"></path>
<path d="M4352 394 c4 -21 22 -23 26 -1 2 10 -3 17 -13 17 -10 0 -15 -6 -13
-16z"></path>
<path d="M5442 394 c4 -21 22 -23 26 -1 2 10 -3 17 -13 17 -10 0 -15 -6 -13
-16z"></path>
<path d="M6212 394 c4 -21 22 -23 26 -1 2 10 -3 17 -13 17 -10 0 -15 -6 -13
-16z"></path>
<path d="M2372 330 c-7 -11 -19 -20 -27 -20 -17 0 -19 -12 -5 -26 6 -6 3 -35
-11 -83 -24 -85 -17 -106 28 -81 34 19 42 40 13 33 -19 -5 -20 -3 -14 23 23
93 30 109 52 112 25 4 30 22 7 22 -8 0 -15 9 -15 20 0 11 -3 20 -8 20 -4 0
-13 -9 -20 -20z"></path>
<path d="M4732 321 c-21 -18 -29 -30 -21 -33 10 -3 8 -20 -6 -75 -26 -100 -12
-126 42 -78 l28 25 -28 -6 c-20 -5 -26 -3 -23 7 3 8 12 40 21 72 12 45 20 57
35 57 11 0 20 5 20 10 0 6 -7 10 -16 10 -11 0 -15 6 -11 20 7 27 -2 25 -41 -9z"></path>
<path d="M1374 320 c-6 -6 -30 -20 -55 -33 -55 -28 -89 -77 -89 -129 0 -48 21
-59 60 -30 l28 21 14 -20 13 -21 28 22 c15 12 27 26 27 32 0 6 -6 6 -15 -2
-26 -22 -29 14 -6 89 12 38 21 72 21 75 0 9 -15 7 -26 -4z m-32 -55 c12 -13
-16 -87 -38 -102 -50 -32 -62 31 -15 78 29 28 42 34 53 24z"></path>
<path d="M971 307 c-34 -17 -61 -56 -67 -99 -13 -77 21 -117 71 -84 31 21 34
41 3 25 -18 -10 -24 -8 -35 7 -25 34 -16 50 42 79 42 21 59 60 33 76 -17 11
-19 11 -47 -4z m34 -17 c6 -10 -29 -50 -45 -50 -14 0 -12 12 6 38 16 24 29 28
39 12z"></path>
<path d="M1758 298 c-26 -18 -39 -42 -20 -35 14 4 13 -19 -4 -76 -21 -69 -11
-90 30 -61 30 23 33 34 6 27 -19 -5 -18 -2 7 72 14 43 22 80 17 85 -5 5 -21 0
-36 -12z"></path>
<path d="M2070 291 c-27 -26 -29 -33 -27 -99 1 -39 7 -75 12 -80 6 -5 27 -15
48 -22 41 -13 46 -28 19 -53 -42 -39 -131 -9 -104 34 10 15 9 19 -1 19 -38 0
-50 -62 -16 -81 35 -18 125 -6 154 21 45 42 27 73 -58 100 -44 14 -44 31 1 42
35 9 62 41 62 74 0 13 11 29 27 40 17 11 23 19 15 22 -7 2 -19 -1 -27 -8 -11
-9 -19 -8 -37 4 -30 21 -35 21 -68 -13z m54 -35 c-2 -40 -25 -73 -43 -62 -16
10 -14 42 5 77 20 40 39 32 38 -15z"></path>
<path d="M2500 307 c-13 -7 -35 -28 -47 -46 -39 -58 -26 -151 22 -151 18 0 61
37 53 46 -4 4 -14 1 -23 -6 -20 -17 -45 3 -45 36 0 18 11 29 48 46 49 24 68
61 40 79 -17 11 -18 11 -48 -4z m30 -27 c0 -16 -26 -40 -44 -40 -12 0 -6 24
11 42 21 23 33 23 33 -2z"></path>
<path d="M2644 310 c-57 -23 -95 -140 -59 -180 10 -11 26 -20 36 -20 23 0 81
49 59 50 -9 0 -21 -5 -27 -11 -37 -37 -57 38 -29 105 19 46 35 54 57 27 19
-23 39 -21 39 4 0 14 -30 36 -47 34 -4 0 -18 -4 -29 -9z"></path>
<path d="M3183 310 c-74 -30 -86 -200 -14 -200 28 0 69 31 85 64 40 86 0 164
-71 136z m51 -56 c-1 -54 -33 -119 -59 -119 -27 0 -31 33 -10 95 26 78 71 93
69 24z"></path>
<path d="M3480 307 c-54 -27 -79 -138 -40 -177 53 -53 130 15 130 113 0 61
-40 89 -90 64z m54 -59 c-3 -74 -47 -139 -76 -110 -16 16 7 113 33 141 30 32
44 21 43 -31z"></path>
<path d="M3647 300 c-30 -24 -46 -83 -28 -104 9 -10 9 -20 -1 -41 -11 -24 -10
-29 7 -42 11 -8 32 -17 47 -20 15 -3 33 -12 40 -20 18 -22 -24 -53 -72 -53
-46 0 -66 20 -50 49 8 16 8 21 -3 21 -36 0 -48 -47 -19 -73 37 -34 160 -14
176 28 15 40 6 53 -46 73 -57 21 -78 52 -35 52 31 0 67 39 67 74 0 19 6 29 19
33 11 3 22 11 25 19 6 16 1 17 -23 4 -13 -6 -24 -5 -37 5 -26 19 -37 19 -67
-5z m53 -35 c0 -41 -18 -77 -38 -73 -21 5 -20 49 3 84 18 29 35 23 35 -11z"></path>
<path d="M3954 301 c-32 -19 -64 -82 -64 -124 0 -28 26 -67 45 -67 8 0 27 12
42 26 22 20 23 24 8 19 -41 -14 -50 -11 -53 21 -3 28 2 35 39 55 56 32 70 55
45 75 -25 18 -25 18 -62 -5z m42 -30 c-12 -18 -44 -32 -51 -21 -9 15 35 54 47
42 6 -6 7 -15 4 -21z"></path>
<path d="M5062 308 c-73 -36 -91 -198 -22 -198 22 0 68 36 58 46 -4 4 -14 1
-23 -6 -20 -17 -45 3 -45 37 0 18 8 28 33 38 47 20 74 52 61 73 -14 21 -32 24
-62 10z m18 -50 c-30 -24 -41 -7 -14 23 13 14 21 16 28 9 8 -8 4 -17 -14 -32z"></path>
<path d="M5658 304 c-52 -28 -83 -125 -54 -169 9 -14 24 -25 34 -25 22 1 69
36 60 46 -4 4 -14 1 -23 -6 -20 -17 -45 3 -45 37 0 18 8 28 33 38 47 20 74 52
61 73 -15 23 -33 25 -66 6z m22 -46 c-30 -24 -41 -7 -14 23 13 14 21 16 28 9
8 -8 4 -17 -14 -32z"></path>
<path d="M6038 304 c-57 -30 -88 -143 -50 -177 26 -24 46 -21 79 9 21 20 23
24 8 19 -37 -14 -59 -11 -63 8 -6 32 7 84 29 112 l21 26 22 -20 c28 -26 36
-26 36 -1 0 18 -27 41 -47 40 -4 -1 -20 -8 -35 -16z"></path>
<path d="M6310 307 c-29 -14 -70 -89 -70 -127 0 -30 25 -70 45 -70 8 0 27 12
42 26 22 20 23 24 8 19 -41 -15 -50 -11 -53 22 -3 28 1 34 37 53 52 26 71 58
45 77 -22 16 -23 16 -54 0z m36 -36 c-12 -18 -44 -32 -51 -21 -9 15 35 54 47
42 6 -6 7 -15 4 -21z"></path>
<path d="M6648 305 c-29 -16 -68 -88 -68 -126 0 -33 26 -69 50 -69 10 0 32 12
47 26 22 20 23 24 8 19 -34 -12 -47 -11 -58 6 -15 23 0 85 28 116 l25 28 19
-25 c17 -21 22 -23 33 -12 11 11 9 17 -11 33 -27 22 -37 23 -73 4z"></path>
<path d="M6810 307 c-29 -14 -70 -89 -70 -127 0 -30 25 -70 45 -70 8 0 27 12
42 26 22 20 23 24 8 19 -41 -14 -50 -11 -53 21 -3 28 2 35 39 55 56 32 70 55
45 75 -24 17 -24 17 -56 1z m35 -27 c0 -16 -41 -44 -49 -32 -7 12 24 54 37 49
7 -2 12 -9 12 -17z"></path>
<path d="M1062 298 c-14 -14 -16 -32 -3 -23 21 13 20 -18 -3 -84 -14 -39 -21
-73 -16 -76 11 -7 23 10 52 75 57 125 100 135 62 13 -26 -80 -22 -103 13 -84
11 5 25 17 32 25 10 12 9 14 -8 9 -25 -6 -25 -12 -1 65 11 35 20 70 20 78 0
22 -51 17 -77 -8 l-23 -21 0 21 c0 24 -28 30 -48 10z"></path>
<path d="M1844 288 c-17 -19 -17 -21 -2 -15 29 10 29 -8 2 -83 -14 -39 -23
-74 -20 -77 11 -11 28 11 57 75 30 66 55 102 71 102 13 0 9 -33 -12 -96 -30
-85 -16 -107 37 -58 26 23 26 25 6 19 -28 -8 -28 -3 -3 71 11 32 18 64 16 71
-7 18 -51 16 -66 -2 -7 -8 -16 -15 -21 -15 -5 0 -9 7 -9 15 0 22 -34 18 -56
-7z"></path>
<path d="M2934 288 c-17 -19 -17 -21 -2 -15 28 10 28 -5 2 -79 -29 -83 -29
-87 -6 -75 10 5 25 29 32 52 8 23 27 60 43 81 42 59 53 37 26 -51 -25 -83 -18
-105 25 -77 15 9 26 21 26 27 0 8 -5 7 -15 -1 -21 -17 -20 -1 5 78 11 35 18
68 14 73 -10 16 -47 9 -71 -13 l-23 -21 0 21 c0 29 -31 29 -56 0z"></path>
<path d="M3810 285 c-21 -22 -21 -25 -6 -25 10 0 16 -5 14 -12 -46 -123 -44
-157 6 -124 28 18 36 39 11 30 -20 -8 -19 3 10 80 14 37 25 69 25 71 0 15 -40
1 -60 -20z"></path>
<path d="M4067 292 c-22 -24 -21 -34 4 -83 27 -54 20 -73 -26 -65 -27 5 -35 4
-35 -8 0 -39 82 -24 102 19 10 22 8 33 -11 72 -24 51 -18 73 17 54 14 -7 23
-8 27 -1 19 31 -51 42 -78 12z"></path>
<path d="M4303 293 c-25 -17 -31 -35 -10 -30 16 3 15 -7 -8 -76 -22 -68 -13
-89 29 -62 14 10 26 22 26 27 0 6 -6 5 -15 -2 -21 -18 -20 3 5 75 30 88 24
104 -27 68z"></path>
<path d="M4402 298 c-14 -14 -16 -32 -3 -23 21 13 20 -19 -3 -85 -13 -38 -20
-72 -16 -75 11 -7 25 13 53 77 26 59 62 102 76 93 5 -3 -2 -39 -15 -82 -26
-80 -22 -103 13 -84 11 5 25 17 32 25 10 12 9 14 -8 9 -25 -7 -25 -9 -1 62 11
32 20 66 20 77 0 26 -48 24 -77 -4 l-23 -21 0 21 c0 24 -28 30 -48 10z"></path>
<path d="M5390 285 c-21 -22 -21 -25 -6 -25 10 0 16 -5 14 -12 -46 -123 -44
-157 6 -124 28 18 36 39 11 30 -19 -8 -19 -11 10 76 30 88 29 80 7 80 -10 0
-29 -11 -42 -25z"></path>
<path d="M5877 292 c-22 -24 -21 -37 4 -82 29 -52 20 -73 -27 -64 -28 5 -36 4
-32 -6 9 -28 37 -36 65 -20 43 24 50 60 24 110 -24 47 -17 69 17 51 21 -11 32
-6 32 16 0 20 -64 16 -83 -5z"></path>
<path d="M6160 285 c-21 -22 -21 -25 -6 -25 10 0 16 -5 14 -12 -46 -123 -44
-157 6 -124 28 18 36 39 11 30 -20 -8 -19 3 10 80 14 37 25 69 25 71 0 15 -40
1 -60 -20z"></path>
<path d="M6405 290 c-16 -18 -16 -20 -2 -20 22 0 21 -7 -7 -85 -23 -63 -21
-90 4 -60 7 8 25 41 40 72 28 61 64 101 74 85 3 -5 -3 -36 -14 -67 -11 -32
-20 -66 -20 -76 0 -31 21 -32 49 -3 14 15 19 22 10 16 -26 -19 -28 -5 -8 59
25 81 25 99 -4 99 -13 0 -32 -7 -43 -15 -25 -19 -34 -19 -34 0 0 21 -24 19
-45 -5z"></path>
<path d="M6917 292 c-22 -24 -21 -34 4 -83 27 -54 20 -73 -26 -65 -27 5 -35 4
-35 -8 0 -39 82 -24 102 19 10 22 8 33 -11 72 -24 50 -18 73 17 54 21 -11 32
-6 32 16 0 20 -64 16 -83 -5z"></path>
</g>
</svg>